<svg width="300" height="123" viewBox="0 0 300 123" fill="none" xmlns="http://www.w3.org/2000/svg">
<path fill-rule="evenodd" clip-rule="evenodd" d="M169.5 122C201.256 122 227 96.2564 227 64.5C227 32.7436 201.256 7 169.5 7C137.744 7 112 32.7436 112 64.5C112 96.2564 137.744 122 169.5 122ZM169.5 110.5C194.905 110.5 215.5 89.9051 215.5 64.5C215.5 39.0949 194.905 18.5 169.5 18.5C144.095 18.5 123.5 39.0949 123.5 64.5C123.5 89.9051 144.095 110.5 169.5 110.5Z" fill="#34A6C2"/>
<path d="M201.446 65.0909C201.446 72.7045 200.003 79.1818 197.116 84.5227C194.253 89.8636 190.344 93.9432 185.389 96.7614C180.457 99.5568 174.912 100.955 168.753 100.955C162.548 100.955 156.98 99.5455 152.048 96.7273C147.116 93.9091 143.219 89.8295 140.355 84.4886C137.491 79.1477 136.06 72.6818 136.06 65.0909C136.06 57.4773 137.491 51 140.355 45.6591C143.219 40.3182 147.116 36.25 152.048 33.4545C156.98 30.6364 162.548 29.2273 168.753 29.2273C174.912 29.2273 180.457 30.6364 185.389 33.4545C190.344 36.25 194.253 40.3182 197.116 45.6591C200.003 51 201.446 57.4773 201.446 65.0909ZM186.48 65.0909C186.48 60.1591 185.741 56 184.264 52.6136C182.81 49.2273 180.753 46.6591 178.094 44.9091C175.435 43.1591 172.321 42.2841 168.753 42.2841C165.185 42.2841 162.071 43.1591 159.412 44.9091C156.753 46.6591 154.685 49.2273 153.207 52.6136C151.753 56 151.026 60.1591 151.026 65.0909C151.026 70.0227 151.753 74.1818 153.207 77.5682C154.685 80.9545 156.753 83.5227 159.412 85.2727C162.071 87.0227 165.185 87.8977 168.753 87.8977C172.321 87.8977 175.435 87.0227 178.094 85.2727C180.753 83.5227 182.81 80.9545 184.264 77.5682C185.741 74.1818 186.48 70.0227 186.48 65.0909Z" fill="white"/>
<path d="M8.625 71.0795H7.625V71.7319L8.222 71.9947L8.625 71.0795ZM8.625 59.0795L8.222 58.1643L7.625 58.4272V59.0795H8.625ZM56.625 37.9432H57.625V36.4102L56.222 37.028L56.625 37.9432ZM56.625 51.75L56.9976 52.678L57.625 52.4261V51.75H56.625ZM23.7614 64.9432L22.9111 64.4168L21.3086 67.0054L24.1339 65.8712L23.7614 64.9432ZM24.2045 64.2273H25.2045V60.712L23.3543 63.7009L24.2045 64.2273ZM24.2045 65.9318L23.3543 66.4582L25.2045 69.4471V65.9318H24.2045ZM23.7614 65.2159L24.1339 64.2879L21.3086 63.1537L22.9111 65.7423L23.7614 65.2159ZM56.625 78.4091H57.625V77.733L56.9976 77.4811L56.625 78.4091ZM56.625 92.2159L56.222 93.1311L57.625 93.7489V92.2159H56.625ZM9.625 71.0795V59.0795H7.625V71.0795H9.625ZM9.028 59.9947L57.028 38.8584L56.222 37.028L8.222 58.1643L9.028 59.9947ZM55.625 37.9432V51.75H57.625V37.9432H55.625ZM56.2524 50.822L23.3888 64.0152L24.1339 65.8712L56.9976 52.678L56.2524 50.822ZM24.6116 65.4695L25.0548 64.7536L23.3543 63.7009L22.9111 64.4168L24.6116 65.4695ZM23.2045 64.2273V65.9318H25.2045V64.2273H23.2045ZM25.0548 65.4055L24.6116 64.6896L22.9111 65.7423L23.3543 66.4582L25.0548 65.4055ZM23.3888 66.1439L56.2524 79.3371L56.9976 77.4811L24.1339 64.2879L23.3888 66.1439ZM55.625 78.4091V92.2159H57.625V78.4091H55.625ZM57.028 91.3007L9.028 70.1643L8.222 71.9947L56.222 93.1311L57.028 91.3007ZM101.455 19.9091L102.42 20.169L102.759 18.9091H101.455V19.9091ZM78.9545 103.5V104.5H79.721L79.9202 103.76L78.9545 103.5ZM66.4432 103.5L65.4776 103.24L65.1384 104.5H66.4432V103.5ZM88.9432 19.9091V18.9091H88.1768L87.9776 19.6492L88.9432 19.9091ZM100.489 19.6492L77.9889 103.24L79.9202 103.76L102.42 20.169L100.489 19.6492ZM78.9545 102.5H66.4432V104.5H78.9545V102.5ZM67.4088 103.76L89.9088 20.169L87.9776 19.6492L65.4776 103.24L67.4088 103.76ZM88.9432 20.9091H101.455V18.9091H88.9432V20.9091Z" fill="#34A6C2"/>
<path d="M290.625 71.0795L291.028 71.9947L291.625 71.7319V71.0795H290.625ZM242.625 92.2159H241.625V93.7489L243.028 93.1311L242.625 92.2159ZM242.625 78.4091L242.252 77.4811L241.625 77.733V78.4091H242.625ZM275.489 65.2159L276.339 65.7423L277.941 63.1537L275.116 64.2879L275.489 65.2159ZM275.045 65.9318H274.045V69.4471L275.896 66.4582L275.045 65.9318ZM275.045 64.2273L275.896 63.7009L274.045 60.712V64.2273H275.045ZM275.489 64.9432L275.116 65.8712L277.941 67.0054L276.339 64.4168L275.489 64.9432ZM242.625 51.75H241.625V52.4261L242.252 52.678L242.625 51.75ZM242.625 37.9432L243.028 37.028L241.625 36.4102V37.9432H242.625ZM290.625 59.0795H291.625V58.4272L291.028 58.1643L290.625 59.0795ZM290.222 70.1643L242.222 91.3007L243.028 93.1311L291.028 71.9947L290.222 70.1643ZM243.625 92.2159V78.4091H241.625V92.2159H243.625ZM242.998 79.3371L275.861 66.1439L275.116 64.2879L242.252 77.4811L242.998 79.3371ZM274.638 64.6896L274.195 65.4055L275.896 66.4582L276.339 65.7423L274.638 64.6896ZM276.045 65.9318V64.2273H274.045V65.9318H276.045ZM274.195 64.7536L274.638 65.4695L276.339 64.4168L275.896 63.7009L274.195 64.7536ZM275.861 64.0152L242.998 50.822L242.252 52.678L275.116 65.8712L275.861 64.0152ZM243.625 51.75V37.9432H241.625V51.75H243.625ZM242.222 38.8584L290.222 59.9947L291.028 58.1643L243.028 37.028L242.222 38.8584ZM289.625 59.0795V71.0795H291.625V59.0795H289.625Z" fill="#34A6C2"/>
</svg>
