<svg width="466" height="123" viewBox="0 0 466 123" fill="none" xmlns="http://www.w3.org/2000/svg">
<path fill-rule="evenodd" clip-rule="evenodd" d="M217.5 122C249.256 122 275 96.2564 275 64.5C275 32.7436 249.256 7 217.5 7C185.744 7 160 32.7436 160 64.5C160 96.2564 185.744 122 217.5 122ZM217.5 110.5C242.905 110.5 263.5 89.9051 263.5 64.5C263.5 39.0949 242.905 18.5 217.5 18.5C192.095 18.5 171.5 39.0949 171.5 64.5C171.5 89.9051 192.095 110.5 217.5 110.5Z" fill="#34A6C2"/>
<path d="M137.023 30.1818H151.614V78.8636C151.614 83.3636 150.602 87.2727 148.58 90.5909C146.58 93.9091 143.795 96.4659 140.227 98.2614C136.659 100.057 132.511 100.955 127.784 100.955C123.58 100.955 119.761 100.216 116.33 98.7386C112.92 97.2386 110.216 94.9659 108.216 91.9205C106.216 88.8523 105.227 85 105.25 80.3636H119.943C119.989 82.2045 120.364 83.7841 121.068 85.1023C121.795 86.3977 122.784 87.3977 124.034 88.1023C125.307 88.7841 126.807 89.125 128.534 89.125C130.352 89.125 131.886 88.7386 133.136 87.9659C134.409 87.1705 135.375 86.0114 136.034 84.4886C136.693 82.9659 137.023 81.0909 137.023 78.8636V30.1818ZM250.196 65.0909C250.196 72.7045 248.753 79.1818 245.866 84.5227C243.003 89.8636 239.094 93.9432 234.139 96.7614C229.207 99.5568 223.662 100.955 217.503 100.955C211.298 100.955 205.73 99.5455 200.798 96.7273C195.866 93.9091 191.969 89.8295 189.105 84.4886C186.241 79.1477 184.81 72.6818 184.81 65.0909C184.81 57.4773 186.241 51 189.105 45.6591C191.969 40.3182 195.866 36.25 200.798 33.4545C205.73 30.6364 211.298 29.2273 217.503 29.2273C223.662 29.2273 229.207 30.6364 234.139 33.4545C239.094 36.25 243.003 40.3182 245.866 45.6591C248.753 51 250.196 57.4773 250.196 65.0909ZM235.23 65.0909C235.23 60.1591 234.491 56 233.014 52.6136C231.56 49.2273 229.503 46.6591 226.844 44.9091C224.185 43.1591 221.071 42.2841 217.503 42.2841C213.935 42.2841 210.821 43.1591 208.162 44.9091C205.503 46.6591 203.435 49.2273 201.957 52.6136C200.503 56 199.776 60.1591 199.776 65.0909C199.776 70.0227 200.503 74.1818 201.957 77.5682C203.435 80.9545 205.503 83.5227 208.162 85.2727C210.821 87.0227 213.935 87.8977 217.503 87.8977C221.071 87.8977 224.185 87.0227 226.844 85.2727C229.503 83.5227 231.56 80.9545 233.014 77.5682C234.491 74.1818 235.23 70.0227 235.23 65.0909ZM283.349 100V30.1818H298.111V87.8295H328.043V100H283.349ZM337.818 100V30.1818H384.045V42.3523H352.58V58.9886H380.977V71.1591H352.58V100H337.818Z" fill="white"/>
<path d="M8.625 71.0795H7.625V71.7319L8.222 71.9947L8.625 71.0795ZM8.625 59.0795L8.222 58.1643L7.625 58.4272V59.0795H8.625ZM56.625 37.9432H57.625V36.4102L56.222 37.028L56.625 37.9432ZM56.625 51.75L56.9976 52.678L57.625 52.4261V51.75H56.625ZM23.7614 64.9432L22.9111 64.4168L21.3086 67.0054L24.1339 65.8712L23.7614 64.9432ZM24.2045 64.2273H25.2045V60.712L23.3543 63.7009L24.2045 64.2273ZM24.2045 65.9318L23.3543 66.4582L25.2045 69.4471V65.9318H24.2045ZM23.7614 65.2159L24.1339 64.2879L21.3086 63.1537L22.9111 65.7423L23.7614 65.2159ZM56.625 78.4091H57.625V77.733L56.9976 77.4811L56.625 78.4091ZM56.625 92.2159L56.222 93.1311L57.625 93.7489V92.2159H56.625ZM9.625 71.0795V59.0795H7.625V71.0795H9.625ZM9.028 59.9947L57.028 38.8584L56.222 37.028L8.222 58.1643L9.028 59.9947ZM55.625 37.9432V51.75H57.625V37.9432H55.625ZM56.2524 50.822L23.3888 64.0152L24.1339 65.8712L56.9976 52.678L56.2524 50.822ZM24.6116 65.4695L25.0548 64.7536L23.3543 63.7009L22.9111 64.4168L24.6116 65.4695ZM23.2045 64.2273V65.9318H25.2045V64.2273H23.2045ZM25.0548 65.4055L24.6116 64.6896L22.9111 65.7423L23.3543 66.4582L25.0548 65.4055ZM23.3888 66.1439L56.2524 79.3371L56.9976 77.4811L24.1339 64.2879L23.3888 66.1439ZM55.625 78.4091V92.2159H57.625V78.4091H55.625ZM57.028 91.3007L9.028 70.1643L8.222 71.9947L56.222 93.1311L57.028 91.3007ZM101.455 19.9091L102.42 20.169L102.759 18.9091H101.455V19.9091ZM78.9545 103.5V104.5H79.721L79.9202 103.76L78.9545 103.5ZM66.4432 103.5L65.4776 103.24L65.1384 104.5H66.4432V103.5ZM88.9432 19.9091V18.9091H88.1768L87.9776 19.6492L88.9432 19.9091ZM100.489 19.6492L77.9889 103.24L79.9202 103.76L102.42 20.169L100.489 19.6492ZM78.9545 102.5H66.4432V104.5H78.9545V102.5ZM67.4088 103.76L89.9088 20.169L87.9776 19.6492L65.4776 103.24L67.4088 103.76ZM88.9432 20.9091H101.455V18.9091H88.9432V20.9091Z" fill="#34A6C2"/>
<path d="M456.625 71.0795L457.028 71.9947L457.625 71.7319V71.0795H456.625ZM408.625 92.2159H407.625V93.7489L409.028 93.1311L408.625 92.2159ZM408.625 78.4091L408.252 77.4811L407.625 77.733V78.4091H408.625ZM441.489 65.2159L442.339 65.7423L443.941 63.1537L441.116 64.2879L441.489 65.2159ZM441.045 65.9318H440.045V69.4471L441.896 66.4582L441.045 65.9318ZM441.045 64.2273L441.896 63.7009L440.045 60.712V64.2273H441.045ZM441.489 64.9432L441.116 65.8712L443.941 67.0054L442.339 64.4168L441.489 64.9432ZM408.625 51.75H407.625V52.4261L408.252 52.678L408.625 51.75ZM408.625 37.9432L409.028 37.028L407.625 36.4102V37.9432H408.625ZM456.625 59.0795H457.625V58.4272L457.028 58.1643L456.625 59.0795ZM456.222 70.1643L408.222 91.3007L409.028 93.1311L457.028 71.9947L456.222 70.1643ZM409.625 92.2159V78.4091H407.625V92.2159H409.625ZM408.998 79.3371L441.861 66.1439L441.116 64.2879L408.252 77.4811L408.998 79.3371ZM440.638 64.6896L440.195 65.4055L441.896 66.4582L442.339 65.7423L440.638 64.6896ZM442.045 65.9318V64.2273H440.045V65.9318H442.045ZM440.195 64.7536L440.638 65.4695L442.339 64.4168L441.896 63.7009L440.195 64.7536ZM441.861 64.0152L408.998 50.822L408.252 52.678L441.116 65.8712L441.861 64.0152ZM409.625 51.75V37.9432H407.625V51.75H409.625ZM408.222 38.8584L456.222 59.9947L457.028 58.1643L409.028 37.028L408.222 38.8584ZM455.625 59.0795V71.0795H457.625V59.0795H455.625Z" fill="#34A6C2"/>
</svg>
