<?xml version="1.0" encoding="UTF-8"?>
<svg id="Layer_1" data-name="Layer 1" xmlns="http://www.w3.org/2000/svg" xmlns:xlink="http://www.w3.org/1999/xlink" viewBox="0 0 258.11 289.77">
  <defs>
    <linearGradient id="linear-gradient" x1="103.18" y1="175.93" x2="33.56" y2="108.63" gradientTransform="translate(-84.53 101.3) rotate(-43.73) scale(1.02) skewX(2.54)" gradientUnits="userSpaceOnUse">
      <stop offset="0" stop-color="#89d0c2"/>
      <stop offset="1" stop-color="#1172ba"/>
    </linearGradient>
    <linearGradient id="linear-gradient-2" x1="19.79" y1="142.91" x2="118.04" y2="142.91" xlink:href="#linear-gradient"/>
    <linearGradient id="linear-gradient-3" x1="57.47" y1="88.39" x2="144.38" y2=".87" gradientTransform="matrix(1, 0, 0, 1, 0, 0)" xlink:href="#linear-gradient"/>
    <linearGradient id="linear-gradient-4" x1="0" y1="78.78" x2="124.34" y2="78.78" gradientTransform="matrix(1, 0, 0, 1, 0, 0)" xlink:href="#linear-gradient"/>
    <linearGradient id="linear-gradient-5" x1="1" y1="482.3" x2="-68.61" y2="415.01" gradientTransform="translate(-136.62 -207.4) rotate(-43.73) scale(1.02) skewX(2.54)" xlink:href="#linear-gradient"/>
    <linearGradient id="linear-gradient-6" x1="-82.39" y1="449.29" x2="15.87" y2="449.29" gradientTransform="translate(-136.62 -207.4) rotate(-43.73) scale(1.02) skewX(2.54)" xlink:href="#linear-gradient"/>
    <linearGradient id="linear-gradient-7" x1="-40.07" y1="399.4" x2="46.84" y2="311.88" gradientTransform="translate(160.56 598.46) rotate(-180)" xlink:href="#linear-gradient"/>
    <linearGradient id="linear-gradient-8" x1="-97.55" y1="389.79" x2="26.79" y2="389.79" gradientTransform="translate(160.56 598.46) rotate(-180)" xlink:href="#linear-gradient"/>
    <linearGradient id="linear-gradient-9" x1="64.97" y1="144.92" x2="193.44" y2="144.92" gradientTransform="translate(-37.8 45.91) rotate(-17.62)" xlink:href="#linear-gradient"/>
  </defs>
  <g>
    <path d="m26.4,128.82h81.64c13.69,0,24.81,11.12,24.81,24.81h0c0,13.69-11.12,24.81-24.81,24.81H26.4v-49.62h0Z" transform="translate(131.96 -11.31) rotate(45)" style="fill: url(#linear-gradient); stroke: url(#linear-gradient-2); stroke-miterlimit: 10;"/>
    <path d="m116.61,7.73c-9.64-9.64-25.26-9.64-34.89,0L7.73,81.72c-9.64,9.64-9.64,25.26,0,34.89l17.45,17.45,21.73,21.73s-10.2-33.26,13.46-56.92l5.61-5.61,50.64-50.64c9.64-9.64,9.64-25.26,0-34.89Z" style="fill: url(#linear-gradient-3); stroke: url(#linear-gradient-4); stroke-miterlimit: 10;"/>
  </g>
  <g>
    <path d="m125.25,109.01h81.64c13.69,0,24.81,11.12,24.81,24.81h0c0,13.69-11.12,24.81-24.81,24.81h-81.64v-49.62h0Z" transform="translate(210.06 354.65) rotate(-135)" style="fill: url(#linear-gradient-5); stroke: url(#linear-gradient-6); stroke-miterlimit: 10;"/>
    <path d="m141.49,279.72c9.64,9.64,25.26,9.64,34.89,0l73.99-73.99c9.64-9.64,9.64-25.26,0-34.89l-17.45-17.45-21.73-21.73s10.2,33.26-13.46,56.92l-5.61,5.61-50.64,50.64c-9.64,9.64-9.64,25.26,0,34.89Z" style="fill: url(#linear-gradient-7); stroke: url(#linear-gradient-8); stroke-miterlimit: 10;"/>
  </g>
  <rect x="103.5" y="-4.75" width="51.41" height="299.33" rx="25.7" ry="25.7" transform="translate(49.93 -32.31) rotate(17.62)" style="fill: #fff; stroke: url(#linear-gradient-9); stroke-miterlimit: 10; stroke-width: 2px;"/>
</svg>